<svg id="chevron-right" xmlns="http://www.w3.org/2000/svg" xmlns:xlink="http://www.w3.org/1999/xlink" width="20" height="19" viewBox="0 0 20 19">
  <defs>
    <clipPath id="clip-path">
      <path id="Shape" d="M4.655,5.542.244,9.732a.764.764,0,0,0,0,1.12.865.865,0,0,0,1.179,0l5-4.75a.764.764,0,0,0,0-1.12l-5-4.75a.865.865,0,0,0-1.179,0,.764.764,0,0,0,0,1.12Z"/>
    </clipPath>
  </defs>
  <g id="Group_1" data-name="Group 1" transform="translate(6.667 3.958)">
    <path id="Shape-2" data-name="Shape" d="M4.655,5.542.244,9.732a.764.764,0,0,0,0,1.12.865.865,0,0,0,1.179,0l5-4.75a.764.764,0,0,0,0-1.12l-5-4.75a.865.865,0,0,0-1.179,0,.764.764,0,0,0,0,1.12Z"/>
    <g id="Mask_Group_1" data-name="Mask Group 1" clip-path="url(#clip-path)">
      <g id="COLOR_black" data-name="COLOR/ black" transform="translate(-6.667 -3.958)">
        <rect id="Rectangle" width="20" height="19"/>
      </g>
    </g>
  </g>
</svg>
