<svg id="Hourglass" xmlns="http://www.w3.org/2000/svg" width="8" height="12" viewBox="0 0 8 12">
  <path id="Shape" d="M6,12H0V9.25A8.653,8.653,0,0,1,.151,7.792,2.439,2.439,0,0,1,.67,6.661,2.334,2.334,0,0,1,1.553,6,2.34,2.34,0,0,1,.67,5.339,2.437,2.437,0,0,1,.151,4.207,8.649,8.649,0,0,1,0,2.75V0H6V2.75a8.649,8.649,0,0,1-.151,1.457A2.445,2.445,0,0,1,5.33,5.339,2.338,2.338,0,0,1,4.448,6a2.336,2.336,0,0,1,.882.661,2.447,2.447,0,0,1,.519,1.131A8.653,8.653,0,0,1,6,9.25V12ZM3,6.471,1.944,6.92a1.381,1.381,0,0,0-.808,1.046A7.709,7.709,0,0,0,1,9.25V11H5V9.25a7.709,7.709,0,0,0-.136-1.284A1.381,1.381,0,0,0,4.056,6.92L3,6.471ZM1,1V2.75a7.705,7.705,0,0,0,.136,1.283A1.381,1.381,0,0,0,1.944,5.08L3,5.529,4.056,5.08a1.381,1.381,0,0,0,.808-1.046A7.705,7.705,0,0,0,5,2.75V1Z" transform="translate(1)" fill="#2d2d2d"/>
  <path id="Path" d="M0,.5A.5.5,0,0,1,.5,0h7A.5.5,0,0,1,8,.5H8a.5.5,0,0,1-.5.5H.5A.5.5,0,0,1,0,.5Z" transform="translate(0 11)" fill="#2d2d2d"/>
  <path id="Path-2" data-name="Path" d="M0,.5A.5.5,0,0,1,.5,0h7A.5.5,0,0,1,8,.5H8a.5.5,0,0,1-.5.5H.5A.5.5,0,0,1,0,.5Z" fill="#2d2d2d"/>
  <path id="Path-3" data-name="Path" d="M0,1.382A.809.809,0,0,1,.447.658L1.553.106a1,1,0,0,1,.894,0L3.553.658A.809.809,0,0,1,4,1.382H0Z" transform="translate(2 9.618)" fill="#2d2d2d"/>
</svg>
